<svg id="Layer_1" data-name="Layer 1" xmlns="http://www.w3.org/2000/svg" viewBox="0 0 540.62 433.16"><defs><style>.cls-1{fill:#fff;}</style></defs><title>eureka_checkout_icon</title><path class="cls-1" d="M576.27,612.56H35.64V243.36H576.27ZM53,595.19H558.89V260.73H53Z" transform="translate(-35.64 -179.4)"/><path class="cls-1" d="M207.84,260.73c-.26-2-5.37-43,15.93-67.3,8.1-9.24,18.85-13.92,31.95-13.92h90.65c.17-.08,20.33-2,38.35,15.44,14.49,14.06,20.89,36.05,19,65.34l-22.17.36c1.52-24-2.62-41.91-13.72-51.84-12.8-11.45-20.63-10.75-23-10.79l-82.82.84c-8.07,0-14.3,2.64-19.07,8.09-13.48,15.39-13.39,42-11.82,53.78Z" transform="translate(-35.64 -179.4)"/><polygon class="cls-1" points="337.89 131.53 210.97 131.53 210.97 77.14 237.35 77.14 237.35 105.16 311.52 105.16 311.52 77.14 337.89 77.14 337.89 131.53"/></svg>