<svg id="Layer_1" data-name="Layer 1" xmlns="http://www.w3.org/2000/svg" viewBox="0 0 609.88 192.71"><defs><style>.cls-1{fill:#231f20;}.cls-2,.cls-3,.cls-4{fill:none;stroke:#fff;}.cls-2{stroke-linecap:round;}.cls-2,.cls-3,.cls-4,.cls-5{stroke-miterlimit:10;}.cls-4{stroke-width:0.75px;}.cls-5,.cls-6,.cls-7{fill:#fff;}.cls-5{stroke:#231f20;stroke-width:0.5px;}.cls-6{font-size:12.16px;font-family:Hind-Regular, Hind;}</style></defs><title>eureka-logo-black</title><rect class="cls-1" width="609.88" height="192.71"/><path class="cls-2" d="M185.63,136a21.76,21.76,0,0,0,35.86-3.92" transform="translate(0 0.07)"/><path class="cls-2" d="M199.63,121.89H224a21.78,21.78,0,0,0-39-13.37" transform="translate(0 0.07)"/><path class="cls-3" d="M229.75,102.07v26.14s0,16.11,13.29,16.74h1.07c13.29-.63,13.3-16.74,13.3-16.74V102.07" transform="translate(0 0.07)"/><path class="cls-4" d="M266.7,103.31V145" transform="translate(0 0.07)"/><path class="cls-3" d="M292.25,106.21s-17.71.29-25.55,15.68" transform="translate(0 0.07)"/><path class="cls-3" d="M315.12,123.15h21.59c0-.09,0-.18,0-.27a21.62,21.62,0,1,0-43.23,0c0,11.93,9.68,20.79,21.62,20.79,8.15,0,15.24-3.7,18.92-10.36" transform="translate(0 0.07)"/><line class="cls-3" x1="345.09" y1="100.08" x2="345.09" y2="145.03"/><line class="cls-3" x1="374.71" y1="100.19" x2="344.66" y2="130.24"/><line class="cls-3" x1="374.71" y1="145.03" x2="352.29" y2="122.61"/><path class="cls-5" d="M426.19,162.46" transform="translate(0 0.07)"/><polyline class="cls-3" points="431.28 145.03 405.34 100.08 379.39 145.03"/><path class="cls-2" d="M184.74,109.12c8.37-49.65,63.24-88.56,129-88.56,26,0,50.15,6,70.42,16.27" transform="translate(0 0.07)"/><text class="cls-6" transform="translate(322.74 162.84)">vacation planner</text><circle class="cls-7" cx="393.99" cy="41.07" r="2.5"/></svg>