<svg id="Layer_1" data-name="Layer 1" xmlns="http://www.w3.org/2000/svg" viewBox="0 0 579.48 380"><defs><style>.cls-1,.cls-2{fill:none;stroke:#fff;stroke-width:0.75px;}.cls-1{stroke-linecap:round;}.cls-1,.cls-2,.cls-3{stroke-miterlimit:10;}.cls-3,.cls-4,.cls-5{fill:#fff;}.cls-3{stroke:#231f20;stroke-width:0.5px;}.cls-4{font-size:31.28px;font-family:Hind-Regular, Hind;}</style></defs><title>white-logo-on-black</title><path class="cls-1" d="M17.69,499.64c9.37,12.11,23.36,19.79,39,19.79,19.62,0,36.63-12.11,45.2-29.88" transform="translate(-15.24 -202.33)"/><path class="cls-1" d="M50.55,463.4h57.26c0-30.94-22.89-56-51.13-56-16.4,0-31,8.46-40.35,21.62" transform="translate(-15.24 -202.33)"/><path class="cls-2" d="M121.27,412.42v67.23s0,41.46,31.2,43.08H155c31.19-1.62,31.2-43.08,31.2-43.08V412.42" transform="translate(-15.24 -202.33)"/><path class="cls-2" d="M208,415.59V522.73" transform="translate(-15.24 -202.33)"/><path class="cls-2" d="M268,423.06s-41.58.75-60,40.34" transform="translate(-15.24 -202.33)"/><path class="cls-2" d="M321.67,466.63h50.71c0-.23,0-.46,0-.69,0-30.71-22.72-55.61-50.74-55.61s-50.73,24.9-50.73,55.61,22.71,53.49,50.73,53.49c19.14,0,35.78-9.51,44.43-26.65" transform="translate(-15.24 -202.33)"/><line class="cls-2" x1="376.81" y1="204.78" x2="376.81" y2="320.41"/><line class="cls-2" x1="446.34" y1="205.05" x2="375.79" y2="282.37"/><line class="cls-2" x1="446.34" y1="320.41" x2="393.71" y2="262.73"/><path class="cls-3" d="M-89.22,567.79" transform="translate(-15.24 -202.33)"/><polyline class="cls-2" points="579.15 320.41 518.23 204.78 457.32 320.41"/><path class="cls-1" d="M15.61,430.53C35.25,302.81,164.07,202.7,318.43,202.7c60.95,0,117.72,15.38,165.31,41.85" transform="translate(-15.24 -202.33)"/><text class="cls-4" transform="translate(324.34 366.23) scale(0.91 1)">vacation planner</text><ellipse class="cls-5" cx="491.61" cy="52.93" rx="5.88" ry="6.44"/></svg>