<svg id="Layer_1" data-name="Layer 1" xmlns="http://www.w3.org/2000/svg" viewBox="0 0 579.71 380.12"><defs><style>.cls-1,.cls-2{fill:none;stroke:#fff;}.cls-1{stroke-linecap:round;}.cls-1,.cls-2,.cls-3{stroke-miterlimit:10;}.cls-3,.cls-4,.cls-5{fill:#fff;}.cls-3{stroke:#231f20;stroke-width:0.5px;}.cls-4{font-size:31.28px;font-family:Hind-Regular, Hind;}</style></defs><title>white logo on black</title><path class="cls-1" d="M18.69,499.64c9.37,12.11,23.36,19.79,39,19.79,19.62,0,36.63-12.11,45.2-29.88" transform="translate(-16.11 -202.2)"/><path class="cls-1" d="M51.55,463.4h57.26c0-30.94-22.89-56-51.13-56-16.4,0-31,8.46-40.35,21.62" transform="translate(-16.11 -202.2)"/><path class="cls-2" d="M122.27,412.42v67.23s0,41.46,31.2,43.08H156c31.19-1.62,31.2-43.08,31.2-43.08V412.42" transform="translate(-16.11 -202.2)"/><path class="cls-2" d="M209,415.59V522.73" transform="translate(-16.11 -202.2)"/><path class="cls-2" d="M269,423.06s-41.58.75-60,40.34" transform="translate(-16.11 -202.2)"/><path class="cls-2" d="M322.67,466.63h50.71c0-.23,0-.46,0-.69,0-30.71-22.72-55.61-50.74-55.61s-50.73,24.9-50.73,55.61,22.71,53.49,50.73,53.49c19.14,0,35.78-9.51,44.43-26.65" transform="translate(-16.11 -202.2)"/><line class="cls-2" x1="376.94" y1="204.9" x2="376.94" y2="320.53"/><line class="cls-2" x1="446.46" y1="205.17" x2="375.91" y2="282.49"/><line class="cls-2" x1="446.46" y1="320.53" x2="393.84" y2="262.85"/><path class="cls-3" d="M-713.5,567.79" transform="translate(-16.11 -202.2)"/><polyline class="cls-2" points="579.27 320.53 518.36 204.9 457.45 320.53"/><path class="cls-1" d="M16.61,430.53C36.25,302.81,165.07,202.7,319.43,202.7c60.95,0,117.72,15.38,165.31,41.85" transform="translate(-16.11 -202.2)"/><text class="cls-4" transform="translate(324.46 366.36) scale(0.91 1)">vacation planner</text><ellipse class="cls-5" cx="491.73" cy="53.06" rx="5.88" ry="6.44"/></svg>