<svg id="Layer_1" data-name="Layer 1" xmlns="http://www.w3.org/2000/svg" viewBox="0 0 332.34 198.78"><defs><style>.cls-1,.cls-2{fill:none;stroke-width:2px;}.cls-1,.cls-2,.cls-4{stroke:#fff;stroke-miterlimit:10;}.cls-1{stroke-linecap:round;}.cls-3{font-size:16.3px;font-family:Hind-Regular, Hind;}.cls-3,.cls-4{fill:#fff;}.cls-4{stroke-width:0;}</style></defs><title>white-on-black-logo</title><path class="cls-1" d="M12.33,165.13a29.19,29.19,0,0,0,48.07-5.25" transform="translate(-10.14 -9.43)"/><path class="cls-1" d="M31.09,146.25H63.78a29.19,29.19,0,0,0-52.23-17.92" transform="translate(-10.14 -9.43)"/><path class="cls-2" d="M71.47,119.69v35s0,21.6,17.82,22.44h1.44c17.81-.84,17.81-22.44,17.81-22.44v-35" transform="translate(-10.14 -9.43)"/><path class="cls-2" d="M121,121.34v55.82" transform="translate(-10.14 -9.43)"/><path class="cls-2" d="M155.25,125.24s-23.74.38-34.25,21" transform="translate(-10.14 -9.43)"/><path class="cls-2" d="M185.9,147.93h28.95c0-.12,0-.24,0-.36a29,29,0,1,0-57.94,0c0,16,13,27.87,29,27.87,10.93,0,20.43-4.95,25.37-13.88" transform="translate(-10.14 -9.43)"/><line class="cls-2" x1="215.94" y1="107.49" x2="215.94" y2="167.74"/><line class="cls-2" x1="255.64" y1="107.63" x2="215.36" y2="147.92"/><line class="cls-2" x1="255.64" y1="167.74" x2="225.59" y2="137.69"/><path class="cls-2" d="M334.8,200.64" transform="translate(-10.14 -9.43)"/><polyline class="cls-2" points="331.48 167.74 296.7 107.49 261.91 167.74"/><path class="cls-1" d="M11.14,129.13C22.36,62.58,95.91,10.43,184.05,10.43c34.8,0,67.22,8,94.39,21.8" transform="translate(-10.14 -9.43)"/><text class="cls-3" transform="translate(185.98 191.61)">vacation planner</text><circle class="cls-4" cx="281.49" cy="28.38" r="3.36"/></svg>